<?xml version="1.0" standalone="no"?>
<!DOCTYPE svg PUBLIC "-//W3C//DTD SVG 20010904//EN"
 "http://www.w3.org/TR/2001/REC-SVG-20010904/DTD/svg10.dtd">
<svg version="1.0" xmlns="http://www.w3.org/2000/svg"
 width="700.000000pt" height="700.000000pt" viewBox="0 0 700.000000 700.000000"
 preserveAspectRatio="xMidYMid meet">
<metadata>
Created by potrace 1.11, written by Peter Selinger 2001-2013
</metadata>
<g transform="translate(0.000000,700.000000) scale(0.100000,-0.100000)"
fill="#000000" stroke="none">
<path d="M670 6993 c-283 -48 -512 -228 -613 -485 -60 -150 -57 54 -54 -3033
l2 -2830 21 -70 c43 -142 109 -252 215 -355 82 -80 183 -141 303 -183 l91 -32
2830 -2 c1917 -2 2848 1 2885 8 268 51 490 230 594 479 59 143 56 -40 53 3040
-2 1554 -5 2832 -8 2840 -3 8 -13 42 -23 74 -64 215 -238 411 -436 490 -25 10
-52 22 -60 26 -9 4 -29 10 -45 14 -17 3 -41 10 -55 14 -26 7 -5656 13 -5700 5z
m2484 -2214 c174 -174 316 -318 316 -320 0 -2 -573 -4 -1272 -4 l-1273 0 0
-955 0 -955 955 -1 956 -1 -1 316 0 316 -632 3 c-348 1 -633 4 -633 7 0 3 142
147 315 320 l315 315 638 0 637 0 0 -639 0 -640 -320 -318 -320 -319 -957 1
-958 0 -317 318 -318 318 -1 957 0 957 320 321 321 320 956 0 957 -1 316 -316z
m3243 -1 l318 -318 0 -957 1 -958 -321 -320 -320 -320 -956 0 -956 1 -318 318
-319 319 -1 636 0 636 639 3 638 2 314 -314 c173 -173 314 -317 314 -320 0 -3
-281 -5 -625 -5 -343 0 -628 -2 -633 -5 -4 -2 -8 -146 -7 -318 l0 -313 956 0
956 0 -1 955 -1 955 -1245 2 c-685 1 -1258 2 -1275 2 -26 1 -1 29 289 319
l318 318 959 -1 959 0 317 -317z"/>
</g>
</svg>
